#N canvas 450 149 1254 765 12;
#X declare -path . -path ./lib;
#X obj 499 322 nn~ babiole_V2_streaming decode;
#X obj 375 117 readsf~;
#X msg 329 75 start;
#X msg 329 99 stop;
#X obj 377 65 openpanel;
#X obj 377 40 bng 19 250 50 0 empty empty empty 0 -10 0 12 #fcfcfc #000000 #000000;
#X msg 377 89 open \$1;
#X obj 499 260 nn~ babiole_V2_streaming encode, f 35;
#X obj 499 289 +~;
#X floatatom 779 274 5 0 0 0 - - - 0;
#X obj 779 58 vsl 19 162 0 127 0 0 empty empty empty 0 -9 0 12 #fcfcfc #000000 #000000 0 1;
#X obj 779 251 / 12;
#X obj 779 228 - 64;
#X text 772 14 Reset Latent Space;
#X msg 748 37 64;
#X obj 748 15 bng 19 250 50 0 empty empty empty 0 -10 0 12 #fcfcfc #000000 #000000;
#X obj 529 289 +~;
#X floatatom 818 274 5 0 0 0 - - - 0;
#X obj 818 58 vsl 19 162 0 127 0 0 empty empty empty 0 -9 0 12 #fcfcfc #000000 #000000 0 1;
#X obj 818 251 / 12;
#X obj 818 228 - 64;
#X obj 96 34 adc~;
#X obj 560 290 +~;
#X floatatom 857 275 5 0 0 0 - - - 0;
#X obj 857 59 vsl 19 162 0 127 0 0 empty empty empty 0 -9 0 12 #fcfcfc #000000 #000000 0 1;
#X obj 857 252 / 12;
#X obj 857 229 - 64;
#X obj 590 290 +~;
#X floatatom 896 275 5 0 0 0 - - - 0;
#X obj 896 59 vsl 19 162 0 127 0 0 empty empty empty 0 -9 0 12 #fcfcfc #000000 #000000 0 1;
#X obj 896 252 / 12;
#X obj 896 229 - 64;
#X obj 621 290 +~;
#X floatatom 935 275 5 0 0 0 - - - 0;
#X obj 935 59 vsl 19 162 0 127 0 0 empty empty empty 0 -9 0 12 #fcfcfc #000000 #000000 0 1;
#X obj 935 252 / 12;
#X obj 935 229 - 64;
#X obj 651 290 +~;
#X floatatom 974 275 5 0 0 0 - - - 0;
#X obj 974 59 vsl 19 162 0 127 0 0 empty empty empty 0 -9 0 12 #fcfcfc #000000 #000000 0 1;
#X obj 974 252 / 12;
#X obj 974 229 - 64;
#X obj 682 291 +~;
#X floatatom 1013 276 5 0 0 0 - - - 0;
#X obj 1013 60 vsl 19 162 0 127 0 0 empty empty empty 0 -9 0 12 #fcfcfc #000000 #000000 0 1;
#X obj 1013 253 / 12;
#X obj 1013 230 - 64;
#X obj 713 291 +~;
#X floatatom 1052 276 5 0 0 0 - - - 0;
#X obj 1052 60 vsl 19 162 0 127 0 0 empty empty empty 0 -9 0 12 #fcfcfc #000000 #000000 0 1;
#X obj 1052 253 / 12;
#X obj 1052 230 - 64;
#X text 1076 171 Distort Latent Space;
#X text 1077 55 +5;
#X text 1074 208 -5;
#X text 1073 132 -0;
#X text 31 633 set file search path to current directory, f 21;
#X obj 96 63 gain2~;
#X msg 443 90 open ./sounds/Cecile_A.wav;
#X obj 32 667 declare -path . -path ./lib;
#X obj 152 151 loadbang;
#X obj 62 197 vsl 20 128 -99 18 0 1 \$0-gain gain Input -7 -18 0 14 #fca85c #000000 #000000 12146 1;
#X floatatom 62 333 5 0 0 1 _db - - 0;
#X obj 96 126 vu 19 200 empty empty -1 -10 0 12 #404040 #000000 1 0;
#N canvas 110 415 625 417 vu 0;
#X obj 59 129 env~ 1024;
#X obj 161 111 abs~;
#X obj 161 213 snapshot~;
#X obj 161 256 rmstodb;
#X obj 161 21 inlet~;
#X obj 161 288 - 100;
#X obj 59 287 - 100;
#X obj 59 361 outlet;
#X obj 161 361 outlet;
#X text 344 307 Check the help file of env~ and slop~ for more details., f 31;
#X obj 239 89 expr 1000 / $f1;
#X floatatom 239 117 5 0 0 0 - - - 0;
#X obj 161 146 slop~ 0 0 0 0 1e+09;
#X obj 239 18 inlet;
#X floatatom 239 57 5 0 0 0 - - - 0;
#X text 359 89 convert to hz;
#X text 282 118 hz;
#X text 284 57 peak decay time in ms;
#X obj 59 171 t f b;
#X text 345 132 The env~ object is dedicated to RMS analysis. Its output is in dB (0-100 range \, pd style) but needs to be converted to dBFS (and we do that by simply subtracting 100)., f 31;
#X text 345 225 The slop~ object is used here for peak detection. We need to convert the output to dB with rmstodb and also subtract by 100 to convert it to dBFS., f 31;
#X connect 0 0 18 0;
#X connect 1 0 12 0;
#X connect 2 0 3 0;
#X connect 3 0 5 0;
#X connect 4 0 0 0;
#X connect 4 0 1 0;
#X connect 5 0 8 0;
#X connect 6 0 7 0;
#X connect 10 0 11 0;
#X connect 11 0 12 3;
#X connect 12 0 2 0;
#X connect 13 0 14 0;
#X connect 14 0 10 0;
#X connect 18 0 6 0;
#X connect 18 1 2 0;
#X restore 96 89 pd vu;
#X msg 152 175 0;
#X obj 445 547 stgain2~;
#X obj 83 489 hsl 64 15 -1 1 0 1 empty empty empty -2 -6 0 8 #fce014 #000000 #000000 2723 1;
#X floatatom 80 509 5 0 0 0 - - - 0;
#X obj 48 532 pan1~;
#X text 96 100 comment;
#X obj 927 399 vsl 20 128 -99 18 0 1 \$0-gain gain MASTER -7 -18 0 14 #fca85c #000000 #000000 10700 1;
#X floatatom 927 535 5 0 0 1 _db - - 0;
#X text 35 691 Rave model tester for Cecile Babiole "Tissus de diableries" Model and patch by Atau Tanaka;
#X obj 144 88 send~ adc;
#X obj 48 463 r~ adc;
#X obj 48 487 *~;
#X obj 97 463 tgl 19 0 empty empty empty 0 -10 0 12 #fcfcfc #000000 #000000 0 1;
#X text 118 462 monitor ADC~;
#X text 129 510 pan ADC~;
#X text 404 39 Load test sound;
#X obj 370 478 gain2~;
#X obj 232 343 loadbang;
#X obj 287 389 vsl 20 128 -99 18 0 1 \$0-gain gain Test -7 -18 0 14 #fca85c #000000 #000000 8792 1;
#X floatatom 287 525 5 0 0 1 _db - - 0;
#X obj 312 318 vu 19 200 empty empty -1 -10 0 12 #404040 #000000 1 0;
#N canvas 110 415 625 417 vu 0;
#X obj 59 129 env~ 1024;
#X obj 161 111 abs~;
#X obj 161 213 snapshot~;
#X obj 161 256 rmstodb;
#X obj 161 21 inlet~;
#X obj 161 288 - 100;
#X obj 59 287 - 100;
#X obj 59 361 outlet;
#X obj 161 361 outlet;
#X text 344 307 Check the help file of env~ and slop~ for more details., f 31;
#X obj 239 89 expr 1000 / $f1;
#X floatatom 239 117 5 0 0 0 - - - 0;
#X obj 161 146 slop~ 0 0 0 0 1e+09;
#X obj 239 18 inlet;
#X floatatom 239 57 5 0 0 0 - - - 0;
#X text 359 89 convert to hz;
#X text 282 118 hz;
#X text 284 57 peak decay time in ms;
#X obj 59 171 t f b;
#X text 345 132 The env~ object is dedicated to RMS analysis. Its output is in dB (0-100 range \, pd style) but needs to be converted to dBFS (and we do that by simply subtracting 100)., f 31;
#X text 345 225 The slop~ object is used here for peak detection. We need to convert the output to dB with rmstodb and also subtract by 100 to convert it to dBFS., f 31;
#X connect 0 0 18 0;
#X connect 1 0 12 0;
#X connect 2 0 3 0;
#X connect 3 0 5 0;
#X connect 4 0 0 0;
#X connect 4 0 1 0;
#X connect 5 0 8 0;
#X connect 6 0 7 0;
#X connect 10 0 11 0;
#X connect 11 0 12 3;
#X connect 12 0 2 0;
#X connect 13 0 14 0;
#X connect 14 0 10 0;
#X connect 18 0 6 0;
#X connect 18 1 2 0;
#X restore 370 504 pd vu;
#X obj 290 548 hsl 64 15 -1 1 0 1 empty empty empty -2 -6 0 8 #fce014 #000000 #000000 2023 1;
#X floatatom 287 568 5 0 0 0 - - - 0;
#X obj 370 530 pan1~;
#X obj 445 577 dac~ 1 2;
#X text 327 569 pan;
#X obj 975 329 vu 19 200 empty empty -1 -10 0 12 #404040 #000000 1 0;
#N canvas 110 415 625 417 vu 0;
#X obj 59 129 env~ 1024;
#X obj 161 111 abs~;
#X obj 161 213 snapshot~;
#X obj 161 256 rmstodb;
#X obj 161 21 inlet~;
#X obj 161 288 - 100;
#X obj 59 287 - 100;
#X obj 59 361 outlet;
#X obj 161 361 outlet;
#X text 344 307 Check the help file of env~ and slop~ for more details., f 31;
#X obj 239 89 expr 1000 / $f1;
#X floatatom 239 117 5 0 0 0 - - - 0;
#X obj 161 146 slop~ 0 0 0 0 1e+09;
#X obj 239 18 inlet;
#X floatatom 239 57 5 0 0 0 - - - 0;
#X text 359 89 convert to hz;
#X text 282 118 hz;
#X text 284 57 peak decay time in ms;
#X obj 59 171 t f b;
#X text 345 132 The env~ object is dedicated to RMS analysis. Its output is in dB (0-100 range \, pd style) but needs to be converted to dBFS (and we do that by simply subtracting 100)., f 31;
#X text 345 225 The slop~ object is used here for peak detection. We need to convert the output to dB with rmstodb and also subtract by 100 to convert it to dBFS., f 31;
#X connect 0 0 18 0;
#X connect 1 0 12 0;
#X connect 2 0 3 0;
#X connect 3 0 5 0;
#X connect 4 0 0 0;
#X connect 4 0 1 0;
#X connect 5 0 8 0;
#X connect 6 0 7 0;
#X connect 10 0 11 0;
#X connect 11 0 12 3;
#X connect 12 0 2 0;
#X connect 13 0 14 0;
#X connect 14 0 10 0;
#X connect 18 0 6 0;
#X connect 18 1 2 0;
#X restore 980 570 pd vu;
#X obj 1029 329 vu 19 200 empty empty -1 -10 0 12 #404040 #000000 1 0;
#N canvas 110 415 625 417 vu 0;
#X obj 59 129 env~ 1024;
#X obj 161 111 abs~;
#X obj 161 213 snapshot~;
#X obj 161 256 rmstodb;
#X obj 161 21 inlet~;
#X obj 161 288 - 100;
#X obj 59 287 - 100;
#X obj 59 361 outlet;
#X obj 161 361 outlet;
#X text 344 307 Check the help file of env~ and slop~ for more details., f 31;
#X obj 239 89 expr 1000 / $f1;
#X floatatom 239 117 5 0 0 0 - - - 0;
#X obj 161 146 slop~ 0 0 0 0 1e+09;
#X obj 239 18 inlet;
#X floatatom 239 57 5 0 0 0 - - - 0;
#X text 359 89 convert to hz;
#X text 282 118 hz;
#X text 284 57 peak decay time in ms;
#X obj 59 171 t f b;
#X text 345 132 The env~ object is dedicated to RMS analysis. Its output is in dB (0-100 range \, pd style) but needs to be converted to dBFS (and we do that by simply subtracting 100)., f 31;
#X text 345 225 The slop~ object is used here for peak detection. We need to convert the output to dB with rmstodb and also subtract by 100 to convert it to dBFS., f 31;
#X connect 0 0 18 0;
#X connect 1 0 12 0;
#X connect 2 0 3 0;
#X connect 3 0 5 0;
#X connect 4 0 0 0;
#X connect 4 0 1 0;
#X connect 5 0 8 0;
#X connect 6 0 7 0;
#X connect 10 0 11 0;
#X connect 11 0 12 3;
#X connect 12 0 2 0;
#X connect 13 0 14 0;
#X connect 14 0 10 0;
#X connect 18 0 6 0;
#X connect 18 1 2 0;
#X restore 1034 570 pd vu;
#X msg 232 367 -18;
#X obj 786 341 gain2~;
#X obj 648 343 loadbang;
#X obj 699 389 vsl 20 128 -99 18 0 1 \$0-gain gain Rave -7 -18 0 14 #fca85c #000000 #000000 8792 1;
#X floatatom 699 525 5 0 0 1 _db - - 0;
#X obj 728 318 vu 19 200 empty empty -1 -10 0 12 #404040 #000000 1 0;
#N canvas 110 415 625 417 vu 0;
#X obj 59 129 env~ 1024;
#X obj 161 111 abs~;
#X obj 161 213 snapshot~;
#X obj 161 256 rmstodb;
#X obj 161 21 inlet~;
#X obj 161 288 - 100;
#X obj 59 287 - 100;
#X obj 59 361 outlet;
#X obj 161 361 outlet;
#X text 344 307 Check the help file of env~ and slop~ for more details., f 31;
#X obj 239 89 expr 1000 / $f1;
#X floatatom 239 117 5 0 0 0 - - - 0;
#X obj 161 146 slop~ 0 0 0 0 1e+09;
#X obj 239 18 inlet;
#X floatatom 239 57 5 0 0 0 - - - 0;
#X text 359 89 convert to hz;
#X text 282 118 hz;
#X text 284 57 peak decay time in ms;
#X obj 59 171 t f b;
#X text 345 132 The env~ object is dedicated to RMS analysis. Its output is in dB (0-100 range \, pd style) but needs to be converted to dBFS (and we do that by simply subtracting 100)., f 31;
#X text 345 225 The slop~ object is used here for peak detection. We need to convert the output to dB with rmstodb and also subtract by 100 to convert it to dBFS., f 31;
#X connect 0 0 18 0;
#X connect 1 0 12 0;
#X connect 2 0 3 0;
#X connect 3 0 5 0;
#X connect 4 0 0 0;
#X connect 4 0 1 0;
#X connect 5 0 8 0;
#X connect 6 0 7 0;
#X connect 10 0 11 0;
#X connect 11 0 12 3;
#X connect 12 0 2 0;
#X connect 13 0 14 0;
#X connect 14 0 10 0;
#X connect 18 0 6 0;
#X connect 18 1 2 0;
#X restore 786 368 pd vu;
#X obj 702 548 hsl 64 15 -1 1 0 1 empty empty empty -2 -6 0 8 #fce014 #000000 #000000 3523 1;
#X floatatom 699 568 5 0 0 0 - - - 0;
#X obj 786 530 pan1~;
#X text 743 569 pan;
#X msg 648 367 -18;
#X text 698 592 Rave output;
#X text 498 345 The Rave model;
#X obj 499 207 receive~ adc;
#X text 496 187 Live input plays model;
#X text 411 148 Test sound plays model;
#X obj 685 14 loadbang;
#X text 286 592 Test Sound Monitor;
#X text 904 592 Master level;
#X connect 0 0 97 0;
#X connect 1 0 7 0;
#X connect 1 0 81 0;
#X connect 2 0 1 0;
#X connect 3 0 1 0;
#X connect 4 0 6 0;
#X connect 5 0 4 0;
#X connect 6 0 1 0;
#X connect 7 0 8 0;
#X connect 7 1 16 0;
#X connect 7 2 22 0;
#X connect 7 3 27 0;
#X connect 7 4 32 0;
#X connect 7 5 37 0;
#X connect 7 6 42 0;
#X connect 7 7 47 0;
#X connect 8 0 0 0;
#X connect 9 0 8 1;
#X connect 10 0 12 0;
#X connect 11 0 9 0;
#X connect 12 0 11 0;
#X connect 14 0 10 0;
#X connect 14 0 18 0;
#X connect 14 0 24 0;
#X connect 14 0 29 0;
#X connect 14 0 34 0;
#X connect 14 0 39 0;
#X connect 14 0 44 0;
#X connect 14 0 49 0;
#X connect 15 0 14 0;
#X connect 16 0 0 1;
#X connect 17 0 16 1;
#X connect 18 0 20 0;
#X connect 19 0 17 0;
#X connect 20 0 19 0;
#X connect 21 0 57 0;
#X connect 22 0 0 2;
#X connect 23 0 22 1;
#X connect 24 0 26 0;
#X connect 25 0 23 0;
#X connect 26 0 25 0;
#X connect 27 0 0 3;
#X connect 28 0 27 1;
#X connect 29 0 31 0;
#X connect 30 0 28 0;
#X connect 31 0 30 0;
#X connect 32 0 0 4;
#X connect 33 0 32 1;
#X connect 34 0 36 0;
#X connect 35 0 33 0;
#X connect 36 0 35 0;
#X connect 37 0 0 5;
#X connect 38 0 37 1;
#X connect 39 0 41 0;
#X connect 40 0 38 0;
#X connect 41 0 40 0;
#X connect 42 0 0 6;
#X connect 43 0 42 1;
#X connect 44 0 46 0;
#X connect 45 0 43 0;
#X connect 46 0 45 0;
#X connect 47 0 0 7;
#X connect 48 0 47 1;
#X connect 49 0 51 0;
#X connect 50 0 48 0;
#X connect 51 0 50 0;
#X connect 57 0 64 0;
#X connect 57 0 74 0;
#X connect 58 0 1 0;
#X connect 60 0 65 0;
#X connect 61 0 62 0;
#X connect 62 0 57 1;
#X connect 64 0 63 0;
#X connect 65 0 61 0;
#X connect 66 0 90 0;
#X connect 66 0 93 0;
#X connect 66 1 90 1;
#X connect 66 1 95 0;
#X connect 67 0 68 0;
#X connect 68 0 69 1;
#X connect 69 0 66 0;
#X connect 69 1 66 1;
#X connect 71 0 72 0;
#X connect 72 0 66 2;
#X connect 75 0 76 0;
#X connect 76 0 69 0;
#X connect 77 0 76 1;
#X connect 81 0 86 0;
#X connect 81 0 89 0;
#X connect 82 0 96 0;
#X connect 83 0 84 0;
#X connect 84 0 81 1;
#X connect 86 0 85 0;
#X connect 87 0 88 0;
#X connect 88 0 89 1;
#X connect 89 0 66 0;
#X connect 89 1 66 1;
#X connect 93 0 92 0;
#X connect 95 0 94 0;
#X connect 96 0 83 0;
#X connect 97 0 102 0;
#X connect 97 0 105 0;
#X connect 98 0 107 0;
#X connect 99 0 100 0;
#X connect 100 0 97 1;
#X connect 102 0 101 0;
#X connect 103 0 104 0;
#X connect 104 0 105 1;
#X connect 105 0 66 0;
#X connect 105 1 66 1;
#X connect 107 0 99 0;
#X connect 110 0 7 0;
#X connect 113 0 14 0;
