#N canvas 797 776 1191 569 12;
#X obj 422 340 nn~ babiole_V2_streaming decode;
#X obj 298 135 readsf~;
#X obj 299 373 output~;
#X msg 320 43 open ../sounds/Cecile_A.wav;
#X msg 338 82 start;
#X msg 355 105 stop;
#X obj 213 87 openpanel;
#X obj 213 62 bng 19 250 50 0 empty empty empty 0 -10 0 12 #fcfcfc #000000 #000000;
#X msg 213 111 open \$1;
#X obj 422 278 nn~ babiole_V2_streaming encode, f 35;
#X obj 422 307 +~;
#X floatatom 702 292 5 0 0 0 - - - 0;
#X obj 702 72 vsl 19 162 0 127 0 0 empty empty empty 0 -9 0 12 #fcfcfc #000000 #000000 0 1;
#X obj 702 266 / 12;
#X obj 702 242 - 64;
#X text 695 25 Reset Latent Space;
#X msg 671 51 64;
#X obj 671 26 bng 19 250 50 0 empty empty empty 0 -10 0 12 #fcfcfc #000000 #000000;
#X obj 452 307 +~;
#X floatatom 741 292 5 0 0 0 - - - 0;
#X obj 741 72 vsl 19 162 0 127 0 0 empty empty empty 0 -9 0 12 #fcfcfc #000000 #000000 0 1;
#X obj 741 266 / 12;
#X obj 741 242 - 64;
#X obj 422 373 output~;
#X obj 469 99 adc~;
#X obj 483 308 +~;
#X floatatom 780 293 5 0 0 0 - - - 0;
#X obj 780 73 vsl 19 162 0 127 0 0 empty empty empty 0 -9 0 12 #fcfcfc #000000 #000000 0 1;
#X obj 780 267 / 12;
#X obj 780 243 - 64;
#X obj 513 308 +~;
#X floatatom 819 293 5 0 0 0 - - - 0;
#X obj 819 73 vsl 19 162 0 127 0 0 empty empty empty 0 -9 0 12 #fcfcfc #000000 #000000 0 1;
#X obj 819 267 / 12;
#X obj 819 243 - 64;
#X obj 544 308 +~;
#X floatatom 858 293 5 0 0 0 - - - 0;
#X obj 858 73 vsl 19 162 0 127 0 0 empty empty empty 0 -9 0 12 #fcfcfc #000000 #000000 0 1;
#X obj 858 267 / 12;
#X obj 858 243 - 64;
#X obj 574 308 +~;
#X floatatom 897 293 5 0 0 0 - - - 0;
#X obj 897 73 vsl 19 162 0 127 0 0 empty empty empty 0 -9 0 12 #fcfcfc #000000 #000000 0 1;
#X obj 897 267 / 12;
#X obj 897 243 - 64;
#X obj 605 309 +~;
#X floatatom 936 294 5 0 0 0 - - - 0;
#X obj 936 74 vsl 19 162 0 127 0 0 empty empty empty 0 -9 0 12 #fcfcfc #000000 #000000 0 1;
#X obj 936 268 / 12;
#X obj 936 244 - 64;
#X obj 636 309 +~;
#X floatatom 975 294 5 0 0 0 - - - 0;
#X obj 975 74 vsl 19 162 0 127 0 0 empty empty empty 0 -9 0 12 #fcfcfc #000000 #000000 0 1;
#X obj 975 268 / 12;
#X obj 975 244 - 64;
#X text 543 137 Distort Latent Space;
#X text 422 436 RAVE model output;
#X text 291 436 test sound level;
#X text 1000 69 +5;
#X text 997 222 -5;
#X text 996 146 -0;
#X connect 0 0 23 0;
#X connect 0 0 23 1;
#X connect 1 0 2 0;
#X connect 1 0 2 1;
#X connect 1 0 9 0;
#X connect 3 0 1 0;
#X connect 4 0 1 0;
#X connect 5 0 1 0;
#X connect 6 0 8 0;
#X connect 7 0 6 0;
#X connect 8 0 1 0;
#X connect 9 0 10 0;
#X connect 9 1 18 0;
#X connect 9 2 25 0;
#X connect 9 3 30 0;
#X connect 9 4 35 0;
#X connect 9 5 40 0;
#X connect 9 6 45 0;
#X connect 9 7 50 0;
#X connect 10 0 0 0;
#X connect 11 0 10 1;
#X connect 12 0 14 0;
#X connect 13 0 11 0;
#X connect 14 0 13 0;
#X connect 16 0 12 0;
#X connect 16 0 20 0;
#X connect 16 0 27 0;
#X connect 16 0 32 0;
#X connect 16 0 37 0;
#X connect 16 0 42 0;
#X connect 16 0 47 0;
#X connect 16 0 52 0;
#X connect 17 0 16 0;
#X connect 18 0 0 1;
#X connect 19 0 18 1;
#X connect 20 0 22 0;
#X connect 21 0 19 0;
#X connect 22 0 21 0;
#X connect 25 0 0 2;
#X connect 26 0 25 1;
#X connect 27 0 29 0;
#X connect 28 0 26 0;
#X connect 29 0 28 0;
#X connect 30 0 0 3;
#X connect 31 0 30 1;
#X connect 32 0 34 0;
#X connect 33 0 31 0;
#X connect 34 0 33 0;
#X connect 35 0 0 4;
#X connect 36 0 35 1;
#X connect 37 0 39 0;
#X connect 38 0 36 0;
#X connect 39 0 38 0;
#X connect 40 0 0 5;
#X connect 41 0 40 1;
#X connect 42 0 44 0;
#X connect 43 0 41 0;
#X connect 44 0 43 0;
#X connect 45 0 0 6;
#X connect 46 0 45 1;
#X connect 47 0 49 0;
#X connect 48 0 46 0;
#X connect 49 0 48 0;
#X connect 50 0 0 7;
#X connect 51 0 50 1;
#X connect 52 0 54 0;
#X connect 53 0 51 0;
#X connect 54 0 53 0;
